            <svg width="39" height="41" viewBox="0 0 39 41" fill="none" xmlns="http://www.w3.org/2000/svg">
            <path d="M19.3552 20.1953C25.2785 20.1953 30.0792 15.7187 30.0792 10.1953C30.0792 4.67183 25.2785 
            0.195267 19.3552 0.195267C13.4318 0.195267 8.63116 4.67183 8.63116 10.1953C8.63116 15.7187 13.4318 20.1953 19.3552 
            20.1953ZM9.30141 33.3203C9.30141 34.3593 10.1979 35.1953 11.3122 35.1953C12.4265 35.1953 13.3229 34.3593 13.3229 
            33.3203C13.3229 32.2812 12.4265 31.4453 11.3122 31.4453C10.1979 31.4453 9.30141 32.2812 9.30141 33.3203ZM27.3982 
            22.7421V26.5703C30.4562 27.1484 32.7602 29.6796 32.7602 32.6953V35.9531C32.7602 36.5468 32.3078 37.0625 31.6794 
            37.1796L28.9817 37.6796C28.6214 37.75 28.2695 37.5312 28.1941 37.1875L27.9344 35.9609C27.859 35.625 28.0936 35.289 28.4622 
            35.2265L30.0792 34.9218V32.6953C30.0792 27.789 22.0362 27.6093 22.0362 32.8437V34.9296L23.6532 35.2343C24.0134 35.3046 24.248 
            35.6328 24.181 35.9687L23.9213 37.1953C23.8459 37.5312 23.494 37.75 23.1337 37.6875L20.5197 37.3593C19.8579 37.2734 19.3636 
            36.75 19.3636 36.1171V32.6953C19.3636 29.6796 21.6676 27.1562 24.7256 26.5703V23.039C24.5413 23.0937 24.3569 23.125 24.1726 
            23.1875C22.6646 23.6796 21.0476 23.9531 19.3636 23.9531C17.6796 23.9531 16.0626 23.6796 14.5545 23.1875C13.9345 22.9843 
            13.3062 22.8593 12.661 22.7812V29.1562C14.5964 29.6953 16.0123 31.3515 16.0123 33.3281C16.0123 35.7421 13.9094 37.7031 11.3205 
            37.7031C8.7317 37.7031 6.62878 35.7421 6.62878 33.3281C6.62878 31.3515 8.04469 29.6953 9.98004 29.1562V22.875C4.65154 23.7109 
            0.588135 27.9921 0.588135 33.1953V36.6953C0.588135 38.625 2.27214 40.1953 4.34155 40.1953H34.3688C36.4382 40.1953 38.1222 38.625
             38.1222 36.6953V33.1953C38.1222 27.5703 33.3634 23.0156 27.3982 22.7421Z" fill="white"/>
            </svg>