<svg width="18" height="20" viewBox="0 0 18 20" fill="none" xmlns="http://www.w3.org/2000/svg">
<path d="M15.0862 2.5H11.4943C11.4943 1.12109 10.2056 0 8.62069 0C7.03574 0 5.74713 1.12109 5.74713 2.5H2.15517C0.965338 2.5 0 3.33984 0 4.375V18.125C0 19.1602 0.965338 20 2.15517 20H15.0862C16.276 20 17.2414 19.1602 17.2414 18.125V4.375C17.2414 3.33984 16.276 2.5 15.0862 2.5ZM8.62069 1.5625C9.21785 1.5625 9.69828 1.98047 9.69828 2.5C9.69828 3.01953 9.21785 3.4375 8.62069 3.4375C8.02353 3.4375 7.5431 3.01953 7.5431 2.5C7.5431 1.98047 8.02353 1.5625 8.62069 1.5625ZM14.0625 10.6172L7.64188 16.1562C7.43085 16.3398 7.08962 16.3359 6.87859 16.1523L3.1699 12.8984C2.95887 12.7148 2.96336 12.418 3.17439 12.2344L4.44953 11.1328C4.66056 10.9492 5.0018 10.9531 5.21282 11.1367L7.2782 12.9492L12.0375 8.83984C12.2486 8.65625 12.5898 8.66016 12.8008 8.84375L14.067 9.95312C14.278 10.1406 14.2735 10.4336 14.0625 10.6172Z" fill="black"/>
</svg>